Coordinates
version=1
nRows=14
nColumns=40
inDegrees=yes

Units are S.I. units (second, meters, Newtons, ...)
If the header above contains a line with 'inDegrees', this indicates whether rotational values are in degrees (yes) or radians (no).

endheader
time	pelvis_tilt	pelvis_list	pelvis_rotation	pelvis_tx	pelvis_ty	pelvis_tz	hip_flexion_r	hip_adduction_r	hip_rotation_r	knee_angle_r	knee_angle_r_beta	ankle_angle_r	subtalar_angle_r	mtp_angle_r	hip_flexion_l	hip_adduction_l	hip_rotation_l	knee_angle_l	knee_angle_l_beta	ankle_angle_l	subtalar_angle_l	mtp_angle_l	lumbar_extension	lumbar_bending	lumbar_rotation	arm_flex_r	arm_add_r	arm_rot_r	elbow_flex_r	pro_sup_r	wrist_flex_r	wrist_dev_r	arm_flex_l	arm_add_l	arm_rot_l	elbow_flex_l	pro_sup_l	wrist_flex_l	wrist_dev_l
      1.60000000	      6.54668240	      4.79920071	      4.43548831	     -0.35080611	      1.09399445	     -0.76102509	      2.86193867	     -2.65037563	    -16.31421097	     16.92674832	      0.29542749	     -6.23282874	      0.00000000	      0.00000000	     26.68944214	     -2.25167764	     -0.12287871	     14.40605055	      0.25143301	     -4.43025203	      0.00000000	      0.00000000	    -10.53397901	      0.59406251	      0.88594888	     89.91583127	    -11.60257124	     35.01210490	     28.86767187	     81.78292682	      0.00000000	      0.00000000	     89.91764484	     -8.37734188	     34.96967853	     33.79547355	     83.97734579	      0.00000000	      0.00000000
      1.60500000	      6.63830811	      4.81104827	      4.42218067	     -0.35109593	      1.09404707	     -0.76079396	      2.78252277	     -2.64933703	    -16.32327136	     16.93625995	      0.29559350	     -6.23697684	      0.00000000	      0.00000000	     27.01686778	     -2.23016929	     -0.14310513	     14.30819521	      0.24972512	     -4.40662576	      0.00000000	      0.00000000	    -10.64961628	      0.58898354	      0.90794552	     89.91567795	    -11.60206700	     34.99750299	     28.88417810	     81.78326530	      0.00000000	      0.00000000	     89.91770191	     -8.38551189	     34.95013089	     33.81161108	     83.97319658	      0.00000000	      0.00000000
      1.61000000	      6.72243600	      4.81948061	      4.41340836	     -0.35140586	      1.09413446	     -0.76057321	      2.71463902	     -2.65187225	    -16.33661745	     16.94450914	      0.29573747	     -6.24234125	      0.00000000	      0.00000000	     27.33571795	     -2.21717979	     -0.17531785	     14.19381223	      0.24772876	     -4.37497450	      0.00000000	      0.00000000	    -10.76125094	      0.58643523	      0.92708291	     89.91550429	    -11.60705995	     34.98340599	     28.89482606	     81.78359878	      0.00000000	      0.00000000	     89.91791343	     -8.39592210	     34.93026199	     33.82842862	     83.96887862	      0.00000000	      0.00000000
      1.61500000	      6.80085248	      4.81900387	      4.40854135	     -0.35162550	      1.09422078	     -0.76027832	      2.64624672	     -2.63820389	    -16.35733954	     16.95317718	      0.29588876	     -6.25046812	      0.00000000	      0.00000000	     27.65846382	     -2.20531695	     -0.21532624	     14.06355850	      0.24545540	     -4.35246901	      0.00000000	      0.00000000	    -10.87231149	      0.57773539	      0.93892451	     89.91539263	    -11.61362193	     34.97020417	     28.90555849	     81.78354930	      0.00000000	      0.00000000	     89.91855980	     -8.40832286	     34.90852421	     33.85166303	     83.96438165	      0.00000000	      0.00000000
      1.62000000	      6.79736999	      4.77658661	      4.43470458	     -0.35183799	      1.09415684	     -0.76007936	      2.67358212	     -2.59766785	    -16.52348267	     16.96885853	      0.29616245	     -6.29555000	      0.00000000	      0.00000000	     27.93251404	     -2.22503574	     -0.45002633	     13.60680997	      0.23748363	     -4.28108956	      0.00000000	      0.00000000	    -10.85301811	      0.63184062	      0.94795128	     89.91505459	    -11.63021362	     35.00756055	     28.83985781	     81.80686539	      0.00000000	      0.00000000	     89.91756075	     -8.41555292	     34.90335988	     33.88603778	     83.94937089	      0.00000000	      0.00000000
      1.62500000	      6.88872075	      4.79721081	      4.41032825	     -0.35208672	      1.09425646	     -0.75984371	      2.59396840	     -2.61162495	    -16.53809484	     16.97903611	      0.29634008	     -6.30443719	      0.00000000	      0.00000000	     28.24176306	     -2.20547896	     -0.45718519	     13.51113499	      0.23581379	     -4.26585069	      0.00000000	      0.00000000	    -10.95877174	      0.62926708	      0.98681186	     89.91483843	    -11.62191615	     34.99883661	     28.85313566	     81.80731401	      0.00000000	      0.00000000	     89.91742674	     -8.42967722	     34.88807758	     33.89389455	     83.94576049	      0.00000000	      0.00000000
      1.63000000	      6.97105470	      4.81009881	      4.38600904	     -0.35232790	      1.09431921	     -0.75962923	      2.52545758	     -2.61524542	    -16.55627073	     16.98768619	      0.29649106	     -6.31370027	      0.00000000	      0.00000000	     28.56013109	     -2.19223771	     -0.47533480	     13.39916598	      0.23385956	     -4.25239682	      0.00000000	      0.00000000	    -11.06677688	      0.61196250	      1.01185539	     89.91484690	    -11.62452485	     34.98825375	     28.86258421	     81.80746911	      0.00000000	      0.00000000	     89.91799703	     -8.44520173	     34.87239136	     33.90632379	     83.94220275	      0.00000000	      0.00000000
      1.63500000	      7.05359631	      4.82790987	      4.36403422	     -0.35257547	      1.09435665	     -0.75936652	      2.45936574	     -2.61914403	    -16.57340765	     16.99780592	      0.29666768	     -6.32381955	      0.00000000	      0.00000000	     28.86404495	     -2.17331284	     -0.49718308	     13.27714695	      0.23172993	     -4.22933640	      0.00000000	      0.00000000	    -11.15492797	      0.60477877	      1.04738857	     89.91449931	    -11.62786649	     34.98086557	     28.86545930	     81.80797997	      0.00000000	      0.00000000	     89.91759402	     -8.46138840	     34.85776328	     33.91562872	     83.93868356	      0.00000000	      0.00000000
      1.64000000	      7.13073603	      4.84522556	      4.33312993	     -0.35279290	      1.09441253	     -0.75911614	      2.39751379	     -2.62363600	    -16.58881024	     17.00823646	      0.29684973	     -6.33427284	      0.00000000	      0.00000000	     29.16932963	     -2.15537059	     -0.51998446	     13.14835251	      0.22948204	     -4.20325900	      0.00000000	      0.00000000	    -11.24637861	      0.59202383	      1.08543462	     89.91410862	    -11.63254314	     34.97929136	     28.86425163	     81.80938178	      0.00000000	      0.00000000	     89.91751528	     -8.47910183	     34.84478265	     33.92449194	     83.93538690	      0.00000000	      0.00000000
      1.64500000	      7.11357575	      5.01379966	      4.22026958	     -0.35292944	      1.09443797	     -0.75884743	      2.50335028	     -2.83486184	    -16.59180506	     17.19122324	      0.30004345	     -6.40903390	      0.00000000	      0.00000000	     29.29035944	     -2.00592686	     -0.60585446	     12.41522396	      0.21668654	     -4.41125061	      0.00000000	      0.00000000	    -11.20064286	      0.38348580	      1.21990624	     89.91505299	    -11.69932840	     35.28855244	     28.64788322	     81.90968492	      0.00000000	      0.00000000	     89.91771643	     -8.44270317	     35.05057114	     33.79427831	     83.91554009	      0.00000000	      0.00000000
      1.65000000	      7.20247209	      5.03340116	      4.19214239	     -0.35314736	      1.09449609	     -0.75863316	      2.42957495	     -2.83522214	    -16.59661425	     17.19788297	      0.30015968	     -6.40836227	      0.00000000	      0.00000000	     29.59418612	     -1.98976680	     -0.61336433	     12.33003163	      0.21519965	     -4.39146156	      0.00000000	      0.00000000	    -11.30521918	      0.37015660	      1.24859467	     89.91430180	    -11.69567808	     35.27697261	     28.66516753	     81.90965430	      0.00000000	      0.00000000	     89.91786120	     -8.45898240	     35.02868459	     33.81203781	     83.91161714	      0.00000000	      0.00000000
      1.65500000	      7.29233544	      5.04872643	      4.16212486	     -0.35333164	      1.09454068	     -0.75840684	      2.34894985	     -2.83272127	    -16.59925482	     17.20451748	      0.30027548	     -6.40738201	      0.00000000	      0.00000000	     29.90488931	     -1.96861222	     -0.62151595	     12.23250583	      0.21349750	     -4.38463533	      0.00000000	      0.00000000	    -11.40570424	      0.35850251	      1.27999201	     89.91384685	    -11.69428375	     35.26700215	     28.67539485	     81.90975436	      0.00000000	      0.00000000	     89.91802154	     -8.47906828	     35.00732750	     33.82873400	     83.90781140	      0.00000000	      0.00000000
      1.66000000	      7.37048189	      5.07200924	      4.13770020	     -0.35356437	      1.09463283	     -0.75818019	      2.28352065	     -2.83421633	    -16.59635445	     17.20892066	      0.30035233	     -6.40848596	      0.00000000	      0.00000000	     30.20070686	     -1.95014489	     -0.63126824	     12.13592376	      0.21181183	     -4.35761953	      0.00000000	      0.00000000	    -11.50619716	      0.33595738	      1.30347774	     89.91350520	    -11.69110515	     35.25969914	     28.68310960	     81.90997116	      0.00000000	      0.00000000	     89.91773446	     -8.49580344	     34.98903809	     33.84052059	     83.90446861	      0.00000000	      0.00000000
      1.66500000	      7.44840170	      5.09617776	      4.11034067	     -0.35377281	      1.09470858	     -0.75795740	      2.22142246	     -2.83830667	    -16.58838041	     17.21439986	      0.30044796	     -6.41170083	      0.00000000	      0.00000000	     30.49922550	     -1.92571515	     -0.63927150	     12.03051917	      0.20997217	     -4.33135730	      0.00000000	      0.00000000	    -11.60078593	      0.31019144	      1.32431629	     89.91333016	    -11.69295247	     35.25477157	     28.68658272	     81.91064426	      0.00000000	      0.00000000	     89.91797656	     -8.51638268	     34.96978666	     33.85210409	     83.90087639	      0.00000000	      0.00000000
